<?xml version="1.0" standalone="no"?>
<!DOCTYPE svg PUBLIC "-//W3C//DTD SVG 20010904//EN"
 "http://www.w3.org/TR/2001/REC-SVG-20010904/DTD/svg10.dtd">
<svg version="1.0" xmlns="http://www.w3.org/2000/svg"
 width="96.000000pt" height="96.000000pt" viewBox="0 0 96.000000 96.000000"
 preserveAspectRatio="xMidYMid meet">
<metadata>
Created by potrace 1.14, written by Peter Selinger 2001-2017
</metadata>
<g transform="translate(0.000000,96.000000) scale(0.100000,-0.100000)"
fill="#000000" stroke="none">
<path d="M506 831 c-3 -5 -8 -24 -11 -42 -3 -19 -37 -176 -74 -349 l-68 -315
45 -3 c51 -4 59 1 66 43 5 28 130 616 140 658 3 14 -3 17 -44 17 -27 0 -51 -4
-54 -9z"/>
<path d="M121 584 l-105 -104 107 -105 c59 -58 110 -105 114 -105 3 0 19 14
35 30 l29 31 -71 71 c-38 39 -70 74 -70 78 0 5 32 39 71 78 l70 70 -30 31
c-17 17 -34 31 -38 30 -4 0 -55 -48 -112 -105z"/>
<path d="M690 658 l-30 -31 70 -69 c38 -38 70 -73 70 -78 0 -4 -31 -39 -70
-77 l-69 -69 27 -32 c15 -18 31 -32 35 -32 4 0 56 47 114 105 l108 106 -108
104 c-59 58 -109 105 -112 105 -3 0 -18 -14 -35 -32z"/>
</g>
</svg>
